<svg width="750" height="750" viewBox="0 0 750 750" fill="none" xmlns="http://www.w3.org/2000/svg">
<rect width="750" height="750" rx="80" fill="#DCE4F5"/>
<path d="M128.626 507.265C128.626 493.996 128.626 481.131 128.626 468.67C128.626 456.209 128.626 442.247 128.626 426.786V343.019C128.626 327.097 128.626 312.732 128.626 299.924C128.626 287.117 128.626 273.964 128.626 260.464C136.125 260.464 144.952 260.464 155.106 260.464C165.375 260.464 176.336 260.464 187.989 260.464C199.643 260.464 211.412 260.464 223.296 260.464C243.372 260.464 260.333 262.714 274.179 267.214C288.14 271.598 298.698 278.983 305.851 289.367C313.12 299.751 316.755 313.886 316.755 331.77C316.755 345.962 313.928 358.711 308.274 370.019C302.736 381.326 293.794 390.268 281.448 396.845C269.102 403.422 252.949 406.71 232.988 406.71L254.968 385.941L288.544 435.44C293.736 443.055 299.275 451.247 305.159 460.016C311.044 468.67 316.755 477.15 322.293 485.458C327.947 493.65 332.908 500.919 337.177 507.265H272.622C266.391 497.573 260.391 488.285 254.622 479.4C248.853 470.516 243.257 461.862 237.834 453.439L197.854 390.441L231.603 416.229H174.317V375.557H215.508C224.738 375.557 232.469 374.461 238.699 372.269C245.045 369.961 249.834 366.096 253.064 360.673C256.295 355.25 257.91 347.808 257.91 338.346C257.91 331.308 256.872 325.655 254.795 321.385C252.718 317.001 249.891 313.597 246.315 311.174C242.853 308.751 238.93 307.136 234.546 306.328C230.277 305.52 225.95 305.117 221.565 305.117H144.029L184.528 269.464C184.528 283.425 184.528 296.809 184.528 309.616C184.528 322.308 184.528 336.443 184.528 352.019V426.786C184.528 442.247 184.528 456.209 184.528 468.67C184.528 481.131 184.528 493.996 184.528 507.265H128.626ZM365.01 507.265C365.01 494.919 365.01 482.977 365.01 471.439C365.01 459.785 365.01 446.805 365.01 432.498V415.191C365.01 401.922 365.01 388.595 365.01 375.211C365.01 361.827 365.01 348.269 365.01 334.539L408.451 331.943L410.701 361.884H415.027C418.95 356.346 423.566 351.154 428.873 346.308C434.181 341.346 440.296 337.366 447.219 334.366C454.257 331.366 462.219 329.866 471.103 329.866C484.372 329.866 494.641 333.212 501.91 339.904C509.294 346.481 514.256 356 516.794 368.461L520.255 368.98C520.948 372.326 521.467 375.845 521.813 379.538C522.275 383.114 522.505 386.922 522.505 390.96C522.505 398.576 522.505 405.672 522.505 412.248C522.505 418.71 522.505 425.459 522.505 432.498C522.505 446.574 522.505 459.497 522.505 471.266C522.505 482.919 522.505 494.919 522.505 507.265H470.757C470.757 494.919 470.757 482.977 470.757 471.439C470.757 459.901 470.757 447.843 470.757 435.267V407.575C470.757 397.422 469.141 389.807 465.911 384.73C462.795 379.538 457.199 376.942 449.123 376.942C444.392 376.942 440.065 377.98 436.142 380.057C432.219 382.134 428.643 384.903 425.412 388.364C422.181 391.71 419.297 395.403 416.758 399.441V435.267C416.758 448.19 416.758 460.362 416.758 471.785C416.758 483.092 416.758 494.919 416.758 507.265H365.01ZM575.812 507.265C575.812 494.919 575.812 482.977 575.812 471.439C575.812 459.901 575.812 447.843 575.812 435.267V407.575C575.812 397.422 574.254 389.807 571.139 384.73C568.023 379.538 562.37 376.942 554.178 376.942C549.447 376.942 545.12 377.98 541.197 380.057C537.274 382.018 533.64 384.73 530.294 388.191C527.063 391.537 524.178 395.287 521.64 399.441L513.852 362.23H518.352C522.505 356.577 527.351 351.269 532.89 346.308C538.428 341.346 544.774 337.366 551.928 334.366C559.197 331.366 567.331 329.866 576.331 329.866C593.523 329.866 606.33 335.058 614.753 345.442C623.291 355.711 627.56 370.884 627.56 390.96C627.56 398.576 627.56 405.672 627.56 412.248C627.56 418.71 627.56 425.459 627.56 432.498C627.56 446.574 627.56 459.497 627.56 471.266C627.56 482.919 627.56 494.919 627.56 507.265H575.812Z" fill="#2163E7"/>
</svg>
